<svg viewBox="0 0 330.0000305175781 200.00001525878906" xmlns="http://www.w3.org/2000/svg"><g><g><g><g><g><line x1="40" y1="175" x2="35" y2="175" style="visibility: inherit;" fill="rgb(0, 0, 0)" stroke="rgb(204, 204, 204)" stroke-width="1px"></line><line x1="40" y1="160.41666666666666" x2="35" y2="160.41666666666666" style="visibility: inherit;" fill="rgb(0, 0, 0)" stroke="rgb(204, 204, 204)" stroke-width="1px"></line><line x1="40" y1="145.83333333333334" x2="35" y2="145.83333333333334" style="visibility: inherit;" fill="rgb(0, 0, 0)" stroke="rgb(204, 204, 204)" stroke-width="1px"></line><line x1="40" y1="131.25" x2="35" y2="131.25" style="visibility: inherit;" fill="rgb(0, 0, 0)" stroke="rgb(204, 204, 204)" stroke-width="1px"></line><line x1="40" y1="116.66666666666667" x2="35" y2="116.66666666666667" style="visibility: inherit;" fill="rgb(0, 0, 0)" stroke="rgb(204, 204, 204)" stroke-width="1px"></line><line x1="40" y1="102.08333333333333" x2="35" y2="102.08333333333333" style="visibility: inherit;" fill="rgb(0, 0, 0)" stroke="rgb(204, 204, 204)" stroke-width="1px"></line><line x1="40" y1="87.5" x2="35" y2="87.5" style="visibility: inherit;" fill="rgb(0, 0, 0)" stroke="rgb(204, 204, 204)" stroke-width="1px"></line><line x1="40" y1="72.91666666666666" x2="35" y2="72.91666666666666" style="visibility: inherit;" fill="rgb(0, 0, 0)" stroke="rgb(204, 204, 204)" stroke-width="1px"></line><line x1="40" y1="58.33333333333334" x2="35" y2="58.33333333333334" style="visibility: inherit;" fill="rgb(0, 0, 0)" stroke="rgb(204, 204, 204)" stroke-width="1px"></line><line x1="40" y1="43.75" x2="35" y2="43.75" style="visibility: inherit;" fill="rgb(0, 0, 0)" stroke="rgb(204, 204, 204)" stroke-width="1px"></line><line x1="40" y1="29.166666666666657" x2="35" y2="29.166666666666657" style="visibility: inherit;" fill="rgb(0, 0, 0)" stroke="rgb(204, 204, 204)" stroke-width="1px"></line><line x1="40" y1="14.583333333333343" x2="35" y2="14.583333333333343" style="visibility: inherit;" fill="rgb(0, 0, 0)" stroke="rgb(204, 204, 204)" stroke-width="1px"></line><line x1="40" y1="0" x2="35" y2="0" style="visibility: inherit;" fill="rgb(0, 0, 0)" stroke="rgb(204, 204, 204)" stroke-width="1px"></line></g><g transform="translate(30, 0)"><text x="0" y="175" dx="0em" dy="0.3em" style="text-anchor: end; visibility: hidden; font-family: &quot;Helvetica Neue&quot;, sans-serif; font-size: 13.3333px; font-weight: 200;" fill="rgb(50, 49, 63)" stroke="none" stroke-width="1px">50</text><text x="0" y="160.41666666666666" dx="0em" dy="0.3em" style="text-anchor: end; visibility: inherit; font-family: &quot;Helvetica Neue&quot;, sans-serif; font-size: 13.3333px; font-weight: 200;" fill="rgb(50, 49, 63)" stroke="none" stroke-width="1px">55</text><text x="0" y="145.83333333333334" dx="0em" dy="0.3em" style="text-anchor: end; visibility: hidden; font-family: &quot;Helvetica Neue&quot;, sans-serif; font-size: 13.3333px; font-weight: 200;" fill="rgb(50, 49, 63)" stroke="none" stroke-width="1px">60</text><text x="0" y="131.25" dx="0em" dy="0.3em" style="text-anchor: end; visibility: inherit; font-family: &quot;Helvetica Neue&quot;, sans-serif; font-size: 13.3333px; font-weight: 200;" fill="rgb(50, 49, 63)" stroke="none" stroke-width="1px">65</text><text x="0" y="116.66666666666667" dx="0em" dy="0.3em" style="text-anchor: end; visibility: hidden; font-family: &quot;Helvetica Neue&quot;, sans-serif; font-size: 13.3333px; font-weight: 200;" fill="rgb(50, 49, 63)" stroke="none" stroke-width="1px">70</text><text x="0" y="102.08333333333333" dx="0em" dy="0.3em" style="text-anchor: end; visibility: inherit; font-family: &quot;Helvetica Neue&quot;, sans-serif; font-size: 13.3333px; font-weight: 200;" fill="rgb(50, 49, 63)" stroke="none" stroke-width="1px">75</text><text x="0" y="87.5" dx="0em" dy="0.3em" style="text-anchor: end; visibility: hidden; font-family: &quot;Helvetica Neue&quot;, sans-serif; font-size: 13.3333px; font-weight: 200;" fill="rgb(50, 49, 63)" stroke="none" stroke-width="1px">80</text><text x="0" y="72.91666666666666" dx="0em" dy="0.3em" style="text-anchor: end; visibility: inherit; font-family: &quot;Helvetica Neue&quot;, sans-serif; font-size: 13.3333px; font-weight: 200;" fill="rgb(50, 49, 63)" stroke="none" stroke-width="1px">85</text><text x="0" y="58.33333333333334" dx="0em" dy="0.3em" style="text-anchor: end; visibility: hidden; font-family: &quot;Helvetica Neue&quot;, sans-serif; font-size: 13.3333px; font-weight: 200;" fill="rgb(50, 49, 63)" stroke="none" stroke-width="1px">90</text><text x="0" y="43.75" dx="0em" dy="0.3em" style="text-anchor: end; visibility: inherit; font-family: &quot;Helvetica Neue&quot;, sans-serif; font-size: 13.3333px; font-weight: 200;" fill="rgb(50, 49, 63)" stroke="none" stroke-width="1px">95</text><text x="0" y="29.166666666666657" dx="0em" dy="0.3em" style="text-anchor: end; visibility: hidden; font-family: &quot;Helvetica Neue&quot;, sans-serif; font-size: 13.3333px; font-weight: 200;" fill="rgb(50, 49, 63)" stroke="none" stroke-width="1px">100</text><text x="0" y="14.583333333333343" dx="0em" dy="0.3em" style="text-anchor: end; visibility: inherit; font-family: &quot;Helvetica Neue&quot;, sans-serif; font-size: 13.3333px; font-weight: 200;" fill="rgb(50, 49, 63)" stroke="none" stroke-width="1px">105</text><text x="0" y="0" dx="0em" dy="0.3em" style="text-anchor: end; visibility: hidden; font-family: &quot;Helvetica Neue&quot;, sans-serif; font-size: 13.3333px; font-weight: 200;" fill="rgb(50, 49, 63)" stroke="none" stroke-width="1px">110</text></g><line x1="40" y1="0" x2="40" y2="175" fill="rgb(0, 0, 0)" stroke="rgb(204, 204, 204)" stroke-width="1px"></line></g></g><g transform="translate(40, 0)" clip-path="url(#clip_0)"><clipPath id="clip_0"><rect width="240" height="175"></rect></clipPath><g><g><g><line x1="0" y1="0" x2="0" y2="175" fill="rgb(0, 0, 0)" stroke="rgb(60, 60, 60)" stroke-width="1px" opacity="0.25"></line><line x1="26.696444444444438" y1="0" x2="26.696444444444438" y2="175" fill="rgb(0, 0, 0)" stroke="rgb(60, 60, 60)" stroke-width="1px" opacity="0.25"></line><line x1="53.392888888888876" y1="0" x2="53.392888888888876" y2="175" fill="rgb(0, 0, 0)" stroke="rgb(60, 60, 60)" stroke-width="1px" opacity="0.25"></line><line x1="80.08933333333331" y1="0" x2="80.08933333333331" y2="175" fill="rgb(0, 0, 0)" stroke="rgb(60, 60, 60)" stroke-width="1px" opacity="0.25"></line><line x1="106.78577777777775" y1="0" x2="106.78577777777775" y2="175" fill="rgb(0, 0, 0)" stroke="rgb(60, 60, 60)" stroke-width="1px" opacity="0.25"></line><line x1="133.48222222222222" y1="0" x2="133.48222222222222" y2="175" fill="rgb(0, 0, 0)" stroke="rgb(60, 60, 60)" stroke-width="1px" opacity="0.25"></line><line x1="160.17866666666663" y1="0" x2="160.17866666666663" y2="175" fill="rgb(0, 0, 0)" stroke="rgb(60, 60, 60)" stroke-width="1px" opacity="0.25"></line><line x1="186.8751111111111" y1="0" x2="186.8751111111111" y2="175" fill="rgb(0, 0, 0)" stroke="rgb(60, 60, 60)" stroke-width="1px" opacity="0.25"></line><line x1="213.5715555555555" y1="0" x2="213.5715555555555" y2="175" fill="rgb(0, 0, 0)" stroke="rgb(60, 60, 60)" stroke-width="1px" opacity="0.25"></line><line x1="240.26799999999997" y1="0" x2="240.26799999999997" y2="175" fill="rgb(0, 0, 0)" stroke="rgb(60, 60, 60)" stroke-width="1px" opacity="0.25"></line></g><g><line x1="0" y1="175" x2="240.26799999999997" y2="175" fill="rgb(0, 0, 0)" stroke="rgb(60, 60, 60)" stroke-width="1px" opacity="0.25"></line><line x1="0" y1="160.41666666666666" x2="240.26799999999997" y2="160.41666666666666" fill="rgb(0, 0, 0)" stroke="rgb(60, 60, 60)" stroke-width="1px" opacity="0.25"></line><line x1="0" y1="145.83333333333334" x2="240.26799999999997" y2="145.83333333333334" fill="rgb(0, 0, 0)" stroke="rgb(60, 60, 60)" stroke-width="1px" opacity="0.25"></line><line x1="0" y1="131.25" x2="240.26799999999997" y2="131.25" fill="rgb(0, 0, 0)" stroke="rgb(60, 60, 60)" stroke-width="1px" opacity="0.25"></line><line x1="0" y1="116.66666666666667" x2="240.26799999999997" y2="116.66666666666667" fill="rgb(0, 0, 0)" stroke="rgb(60, 60, 60)" stroke-width="1px" opacity="0.25"></line><line x1="0" y1="102.08333333333333" x2="240.26799999999997" y2="102.08333333333333" fill="rgb(0, 0, 0)" stroke="rgb(60, 60, 60)" stroke-width="1px" opacity="0.25"></line><line x1="0" y1="87.5" x2="240.26799999999997" y2="87.5" fill="rgb(0, 0, 0)" stroke="rgb(60, 60, 60)" stroke-width="1px" opacity="0.25"></line><line x1="0" y1="72.91666666666666" x2="240.26799999999997" y2="72.91666666666666" fill="rgb(0, 0, 0)" stroke="rgb(60, 60, 60)" stroke-width="1px" opacity="0.25"></line><line x1="0" y1="58.33333333333334" x2="240.26799999999997" y2="58.33333333333334" fill="rgb(0, 0, 0)" stroke="rgb(60, 60, 60)" stroke-width="1px" opacity="0.25"></line><line x1="0" y1="43.75" x2="240.26799999999997" y2="43.75" fill="rgb(0, 0, 0)" stroke="rgb(60, 60, 60)" stroke-width="1px" opacity="0.25"></line><line x1="0" y1="29.166666666666657" x2="240.26799999999997" y2="29.166666666666657" fill="rgb(0, 0, 0)" stroke="rgb(60, 60, 60)" stroke-width="1px" opacity="0.25"></line><line x1="0" y1="14.583333333333343" x2="240.26799999999997" y2="14.583333333333343" fill="rgb(0, 0, 0)" stroke="rgb(60, 60, 60)" stroke-width="1px" opacity="0.25"></line><line x1="0" y1="0" x2="240.26799999999997" y2="0" fill="rgb(0, 0, 0)" stroke="rgb(60, 60, 60)" stroke-width="1px" opacity="0.25"></line></g></g></g><g><g><line x1="0" y1="320.83333333333337" x2="240.26799999999997" y2="320.83333333333337" fill="rgb(0, 0, 0)" stroke="rgb(153, 153, 153)" stroke-width="1.5px"></line></g></g><g><g><line x1="26.696444444444438" y1="0" x2="26.696444444444438" y2="175" fill="rgb(0, 0, 0)" stroke="rgb(153, 153, 153)" stroke-width="1.5px"></line></g></g><g><g><g><g><g><path stroke="rgb(255, 112, 67)" stroke-width="2px" d="M30.700911111111104,199.69213167826334L32.035733333333326,174.3123229344686L33.370555555555555,156.12395604451498L34.70537777777777,142.06161816914877L36.04019999999999,132.35843658447266L37.37502222222222,123.55854670206705L38.70984444444444,116.93240483601889L40.04466666666666,109.97993151346843L41.379488888888886,106.75135294596355L42.71431111111111,103.76172065734863L44.04913333333332,100.78374862670898L45.38395555555555,99.151980082194L46.718777777777774,96.4654032389323L48.053599999999996,95.26488622029623L49.38842222222222,92.90464083353677L50.72324444444444,91.66916529337564L52.05806666666666,91.8847910563151L53.392888888888876,89.90337053934734L54.727711111111105,89.50124740600586L56.06253333333333,89.3031120300293L57.39735555555555,88.7086836496989L58.73217777777777,86.88458760579427L60.06699999999999,86.06287320454916L61.40182222222221,85.66660245259602L62.736644444444444,86.62234306335448L64.07146666666665,85.89386622111003L65.40628888888888,85.15375137329102L66.74111111111111,83.90661557515463L68.07593333333332,84.23296928405762L69.41075555555554,84.2912483215332L70.74557777777777,83.80754788716635L72.08039999999998,83.8599967956543L73.41522222222223,83.17816098531087L74.75004444444444,81.74452781677246L76.08486666666666,82.11167017618816L77.41968888888889,82.11167017618816L78.7545111111111,81.97764396667482L80.08933333333331,81.97764396667482L81.42415555555554,81.19671821594238L82.75897777777777,81.00441296895346L84.09379999999999,81.23750686645508L85.42862222222222,80.689697265625L86.76344444444443,79.42509333292644L88.09826666666665,80.10109901428224L89.43308888888888,80.22348721822102L90.7679111111111,79.710636138916L92.10273333333333,79.75144704182942L93.43755555555555,63.05495897928873L94.77237777777776,58.33449045817058L96.10719999999999,56.329749425252274L97.4420222222222,54.83785947163901L98.77684444444444,54.54063415527344L100.11166666666666,52.844778696695954L101.44648888888888,52.94967651367186L102.7813111111111,51.72583897908528L104.11613333333332,50.75260798136392L105.45095555555554,50.75843811035156L106.78577777777775,50.03579139709473L108.1206,49.66281890869142L109.45542222222221,49.6803092956543L110.79024444444444,48.91687393188475L112.12506666666665,48.62547874450682L113.45988888888887,48.299125035603836L114.7947111111111,47.86206563313803L116.12953333333333,47.518221537272126L117.46435555555554,47.55901018778482L118.79917777777777,47.92615254720053L120.13399999999999,47.23848660786946L121.4688222222222,46.46339098612469L122.80364444444442,46.41094207763672L124.13846666666666,46.69650713602701L125.47328888888889,46.364323298136384L126.8081111111111,46.34683291117352L128.1429333333333,46.195316314697266L129.47775555555555,45.82817395528156L130.81257777777776,46.008841196695954L132.1474,45.6125481923421L133.48222222222222,45.175466537475586L134.81704444444443,45.455201466878265L136.15186666666665,45.717446009318024L137.48668888888886,45.082228978474944L138.82151111111108,45.23374557495117L140.15633333333332,45.455201466878265L141.49115555555554,45.01228968302408L142.82597777777775,44.54024950663248L144.16079999999997,44.97733116149902L145.4956222222222,44.98316129048666L146.83044444444445,44.814154307047545L148.16526666666667,43.82926305135092L149.50008888888888,45.27453422546387L150.8349111111111,44.22555605570474L152.1697333333333,44.63931719462076L153.50455555555553,44.28964296976724L154.83937777777777,43.94582112630209L156.17419999999998,43.54952812194824L157.5090222222222,43.759323755900084L158.84384444444441,43.70687484741211L160.17866666666663,37.47119585673016L161.51348888888887,35.035203297932924L162.8483111111111,34.03865178426108L164.18313333333333,33.560781478881836L165.51795555555555,33.34515571594238L166.85277777777776,33.11786969502765L168.18759999999997,32.79151598612469L169.52242222222222,32.686618169148744L170.85724444444443,32.803176244099916L172.19206666666665,32.424373626708984L173.52688888888886,32.5059731801351L174.86171111111108,32.26119677225748L176.1965333333333,32.051401138305664L177.53135555555554,32.01644261678058L178.86617777777775,32.167959213256836L180.20099999999996,32.068891525268555L181.5358222222222,32.21457799275717L182.87064444444442,31.84160550435385L184.20546666666667,32.01061248779297L185.54028888888888,31.83577537536621L186.8751111111111,31.92318280537924L188.2099333333333,31.63763999938965L189.54475555555553,31.63763999938965L190.87957777777774,31.42782211303711L192.21439999999998,31.25300725301105L193.5492222222222,31.54438018798828L194.8840444444444,31.503591537475586L196.21886666666663,31.43948237101236L197.55368888888887,31.34624481201172L198.8885111111111,31.43365224202472L200.22333333333333,31.398693720499665L201.55815555555554,31.521081924438477L202.89297777777776,31.357905069986998L204.22779999999997,31.293795903523744L205.5626222222222,31.36373519897461L206.89744444444443,31.264645258585603L208.23226666666665,31.124788920084626L209.56708888888886,31.206388473510742L210.90191111111108,31.15974744160971L212.2367333333333,30.926653544108092L213.5715555555555,31.025721232096373L214.90637777777775,31.177237828572572L216.2412,31.014060974121094L217.5760222222222,31.05484962463379L218.91084444444442,30.885842641194643L220.24566666666664,31.043211619059235L221.58048888888888,31.200558344523103L222.9153111111111,30.990740458170592L224.2501333333333,31.09566052754721" style="fill: none;" fill="none"></path></g></g></g></g></g></g><g transform="translate(40, 175)" clip-path="url(#clip_1)"><clipPath id="clip_1"><rect width="240" height="25"></rect></clipPath><g><g><line x1="0" y1="0" x2="0" y2="5" style="visibility: inherit;" fill="rgb(0, 0, 0)" stroke="rgb(204, 204, 204)" stroke-width="1px"></line><line x1="26.696444444444438" y1="0" x2="26.696444444444438" y2="5" style="visibility: inherit;" fill="rgb(0, 0, 0)" stroke="rgb(204, 204, 204)" stroke-width="1px"></line><line x1="53.392888888888876" y1="0" x2="53.392888888888876" y2="5" style="visibility: inherit;" fill="rgb(0, 0, 0)" stroke="rgb(204, 204, 204)" stroke-width="1px"></line><line x1="80.08933333333331" y1="0" x2="80.08933333333331" y2="5" style="visibility: inherit;" fill="rgb(0, 0, 0)" stroke="rgb(204, 204, 204)" stroke-width="1px"></line><line x1="106.78577777777775" y1="0" x2="106.78577777777775" y2="5" style="visibility: inherit;" fill="rgb(0, 0, 0)" stroke="rgb(204, 204, 204)" stroke-width="1px"></line><line x1="133.48222222222222" y1="0" x2="133.48222222222222" y2="5" style="visibility: inherit;" fill="rgb(0, 0, 0)" stroke="rgb(204, 204, 204)" stroke-width="1px"></line><line x1="160.17866666666663" y1="0" x2="160.17866666666663" y2="5" style="visibility: inherit;" fill="rgb(0, 0, 0)" stroke="rgb(204, 204, 204)" stroke-width="1px"></line><line x1="186.8751111111111" y1="0" x2="186.8751111111111" y2="5" style="visibility: inherit;" fill="rgb(0, 0, 0)" stroke="rgb(204, 204, 204)" stroke-width="1px"></line><line x1="213.5715555555555" y1="0" x2="213.5715555555555" y2="5" style="visibility: inherit;" fill="rgb(0, 0, 0)" stroke="rgb(204, 204, 204)" stroke-width="1px"></line><line x1="240.26799999999997" y1="0" x2="240.26799999999997" y2="5" style="visibility: inherit;" fill="rgb(0, 0, 0)" stroke="rgb(204, 204, 204)" stroke-width="1px"></line></g><g transform="translate(0, 8)"><text x="0" y="0" dx="0em" dy="0.95em" style="text-anchor: middle; visibility: hidden; font-family: &quot;Helvetica Neue&quot;, sans-serif; font-size: 13.3333px; font-weight: 200;" fill="rgb(50, 49, 63)" stroke="none" stroke-width="1px">-20</text><text x="26.696444444444438" y="0" dx="0em" dy="0.95em" style="text-anchor: middle; visibility: inherit; font-family: &quot;Helvetica Neue&quot;, sans-serif; font-size: 13.3333px; font-weight: 200;" fill="rgb(50, 49, 63)" stroke="none" stroke-width="1px">0</text><text x="53.392888888888876" y="0" dx="0em" dy="0.95em" style="text-anchor: middle; visibility: inherit; font-family: &quot;Helvetica Neue&quot;, sans-serif; font-size: 13.3333px; font-weight: 200;" fill="rgb(50, 49, 63)" stroke="none" stroke-width="1px">20</text><text x="80.08933333333331" y="0" dx="0em" dy="0.95em" style="text-anchor: middle; visibility: inherit; font-family: &quot;Helvetica Neue&quot;, sans-serif; font-size: 13.3333px; font-weight: 200;" fill="rgb(50, 49, 63)" stroke="none" stroke-width="1px">40</text><text x="106.78577777777775" y="0" dx="0em" dy="0.95em" style="text-anchor: middle; visibility: inherit; font-family: &quot;Helvetica Neue&quot;, sans-serif; font-size: 13.3333px; font-weight: 200;" fill="rgb(50, 49, 63)" stroke="none" stroke-width="1px">60</text><text x="133.48222222222222" y="0" dx="0em" dy="0.95em" style="text-anchor: middle; visibility: inherit; font-family: &quot;Helvetica Neue&quot;, sans-serif; font-size: 13.3333px; font-weight: 200;" fill="rgb(50, 49, 63)" stroke="none" stroke-width="1px">80</text><text x="160.17866666666663" y="0" dx="0em" dy="0.95em" style="text-anchor: middle; visibility: inherit; font-family: &quot;Helvetica Neue&quot;, sans-serif; font-size: 13.3333px; font-weight: 200;" fill="rgb(50, 49, 63)" stroke="none" stroke-width="1px">100</text><text x="186.8751111111111" y="0" dx="0em" dy="0.95em" style="text-anchor: middle; visibility: inherit; font-family: &quot;Helvetica Neue&quot;, sans-serif; font-size: 13.3333px; font-weight: 200;" fill="rgb(50, 49, 63)" stroke="none" stroke-width="1px">120</text><text x="213.5715555555555" y="0" dx="0em" dy="0.95em" style="text-anchor: middle; visibility: inherit; font-family: &quot;Helvetica Neue&quot;, sans-serif; font-size: 13.3333px; font-weight: 200;" fill="rgb(50, 49, 63)" stroke="none" stroke-width="1px">140</text><text x="240.26799999999997" y="0" dx="0em" dy="0.95em" style="text-anchor: middle; visibility: hidden; font-family: &quot;Helvetica Neue&quot;, sans-serif; font-size: 13.3333px; font-weight: 200;" fill="rgb(50, 49, 63)" stroke="none" stroke-width="1px">160</text></g><line x1="0" y1="0" x2="240.26799999999997" y2="0" fill="rgb(0, 0, 0)" stroke="rgb(204, 204, 204)" stroke-width="1px"></line></g></g></g></g></svg>