<svg viewBox="0 0 330 200" xmlns="http://www.w3.org/2000/svg"><g><g><g><g><g><line x1="48.875" y1="177.828125" x2="43.875" y2="177.828125" style="visibility: inherit;" fill="rgb(0, 0, 0)" stroke="rgb(204, 204, 204)" stroke-width="1px"></line><line x1="48.875" y1="155.599609375" x2="43.875" y2="155.599609375" style="visibility: inherit;" fill="rgb(0, 0, 0)" stroke="rgb(204, 204, 204)" stroke-width="1px"></line><line x1="48.875" y1="133.37109375" x2="43.875" y2="133.37109375" style="visibility: inherit;" fill="rgb(0, 0, 0)" stroke="rgb(204, 204, 204)" stroke-width="1px"></line><line x1="48.875" y1="111.14257812499999" x2="43.875" y2="111.14257812499999" style="visibility: inherit;" fill="rgb(0, 0, 0)" stroke="rgb(204, 204, 204)" stroke-width="1px"></line><line x1="48.875" y1="88.91406249999999" x2="43.875" y2="88.91406249999999" style="visibility: inherit;" fill="rgb(0, 0, 0)" stroke="rgb(204, 204, 204)" stroke-width="1px"></line><line x1="48.875" y1="66.685546875" x2="43.875" y2="66.685546875" style="visibility: inherit;" fill="rgb(0, 0, 0)" stroke="rgb(204, 204, 204)" stroke-width="1px"></line><line x1="48.875" y1="44.45703125" x2="43.875" y2="44.45703125" style="visibility: inherit;" fill="rgb(0, 0, 0)" stroke="rgb(204, 204, 204)" stroke-width="1px"></line><line x1="48.875" y1="22.228515625" x2="43.875" y2="22.228515625" style="visibility: inherit;" fill="rgb(0, 0, 0)" stroke="rgb(204, 204, 204)" stroke-width="1px"></line><line x1="48.875" y1="0" x2="43.875" y2="0" style="visibility: inherit;" fill="rgb(0, 0, 0)" stroke="rgb(204, 204, 204)" stroke-width="1px"></line></g><g transform="translate(38.875, 0)"><text style="text-anchor: end; visibility: hidden; font-family: &quot;Helvetica Neue&quot;, sans-serif; font-size: 12px; font-weight: 200;" x="0" y="177.828125" dx="0em" dy="0.3em" fill="rgb(50, 49, 63)" stroke="none" stroke-width="1px">-0.2</text><text style="text-anchor: end; visibility: inherit; font-family: &quot;Helvetica Neue&quot;, sans-serif; font-size: 12px; font-weight: 200;" x="0" y="155.599609375" dx="0em" dy="0.3em" fill="rgb(50, 49, 63)" stroke="none" stroke-width="1px">0</text><text style="text-anchor: end; visibility: hidden; font-family: &quot;Helvetica Neue&quot;, sans-serif; font-size: 12px; font-weight: 200;" x="0" y="133.37109375" dx="0em" dy="0.3em" fill="rgb(50, 49, 63)" stroke="none" stroke-width="1px">0.2</text><text style="text-anchor: end; visibility: inherit; font-family: &quot;Helvetica Neue&quot;, sans-serif; font-size: 12px; font-weight: 200;" x="0" y="111.14257812499999" dx="0em" dy="0.3em" fill="rgb(50, 49, 63)" stroke="none" stroke-width="1px">0.4</text><text style="text-anchor: end; visibility: hidden; font-family: &quot;Helvetica Neue&quot;, sans-serif; font-size: 12px; font-weight: 200;" x="0" y="88.91406249999999" dx="0em" dy="0.3em" fill="rgb(50, 49, 63)" stroke="none" stroke-width="1px">0.6</text><text style="text-anchor: end; visibility: inherit; font-family: &quot;Helvetica Neue&quot;, sans-serif; font-size: 12px; font-weight: 200;" x="0" y="66.685546875" dx="0em" dy="0.3em" fill="rgb(50, 49, 63)" stroke="none" stroke-width="1px">0.8</text><text style="text-anchor: end; visibility: hidden; font-family: &quot;Helvetica Neue&quot;, sans-serif; font-size: 12px; font-weight: 200;" x="0" y="44.45703125" dx="0em" dy="0.3em" fill="rgb(50, 49, 63)" stroke="none" stroke-width="1px">1</text><text style="text-anchor: end; visibility: inherit; font-family: &quot;Helvetica Neue&quot;, sans-serif; font-size: 12px; font-weight: 200;" x="0" y="22.228515625" dx="0em" dy="0.3em" fill="rgb(50, 49, 63)" stroke="none" stroke-width="1px">1.2</text><text style="text-anchor: end; visibility: hidden; font-family: &quot;Helvetica Neue&quot;, sans-serif; font-size: 12px; font-weight: 200;" x="0" y="0" dx="0em" dy="0.3em" fill="rgb(50, 49, 63)" stroke="none" stroke-width="1px">1.4</text></g><line x1="48.875" y1="0" x2="48.875" y2="177.828125" fill="rgb(0, 0, 0)" stroke="rgb(204, 204, 204)" stroke-width="1px"></line></g></g><g transform="translate(48, 0)" clip-path="url(#clip_0)"><clipPath id="clip_0"><rect width="281" height="177"></rect></clipPath><g><g><g><line x1="0" y1="0" x2="0" y2="177.828125" fill="rgb(0, 0, 0)" stroke="rgb(60, 60, 60)" stroke-width="1px" opacity="0.25"></line><line x1="31.23611111111111" y1="0" x2="31.23611111111111" y2="177.828125" fill="rgb(0, 0, 0)" stroke="rgb(60, 60, 60)" stroke-width="1px" opacity="0.25"></line><line x1="62.47222222222222" y1="0" x2="62.47222222222222" y2="177.828125" fill="rgb(0, 0, 0)" stroke="rgb(60, 60, 60)" stroke-width="1px" opacity="0.25"></line><line x1="93.70833333333333" y1="0" x2="93.70833333333333" y2="177.828125" fill="rgb(0, 0, 0)" stroke="rgb(60, 60, 60)" stroke-width="1px" opacity="0.25"></line><line x1="124.94444444444444" y1="0" x2="124.94444444444444" y2="177.828125" fill="rgb(0, 0, 0)" stroke="rgb(60, 60, 60)" stroke-width="1px" opacity="0.25"></line><line x1="156.18055555555557" y1="0" x2="156.18055555555557" y2="177.828125" fill="rgb(0, 0, 0)" stroke="rgb(60, 60, 60)" stroke-width="1px" opacity="0.25"></line><line x1="187.41666666666666" y1="0" x2="187.41666666666666" y2="177.828125" fill="rgb(0, 0, 0)" stroke="rgb(60, 60, 60)" stroke-width="1px" opacity="0.25"></line><line x1="218.65277777777777" y1="0" x2="218.65277777777777" y2="177.828125" fill="rgb(0, 0, 0)" stroke="rgb(60, 60, 60)" stroke-width="1px" opacity="0.25"></line><line x1="249.88888888888889" y1="0" x2="249.88888888888889" y2="177.828125" fill="rgb(0, 0, 0)" stroke="rgb(60, 60, 60)" stroke-width="1px" opacity="0.25"></line><line x1="281.125" y1="0" x2="281.125" y2="177.828125" fill="rgb(0, 0, 0)" stroke="rgb(60, 60, 60)" stroke-width="1px" opacity="0.25"></line></g><g><line x1="0" y1="177.828125" x2="281.125" y2="177.828125" fill="rgb(0, 0, 0)" stroke="rgb(60, 60, 60)" stroke-width="1px" opacity="0.25"></line><line x1="0" y1="155.599609375" x2="281.125" y2="155.599609375" fill="rgb(0, 0, 0)" stroke="rgb(60, 60, 60)" stroke-width="1px" opacity="0.25"></line><line x1="0" y1="133.37109375" x2="281.125" y2="133.37109375" fill="rgb(0, 0, 0)" stroke="rgb(60, 60, 60)" stroke-width="1px" opacity="0.25"></line><line x1="0" y1="111.14257812499999" x2="281.125" y2="111.14257812499999" fill="rgb(0, 0, 0)" stroke="rgb(60, 60, 60)" stroke-width="1px" opacity="0.25"></line><line x1="0" y1="88.91406249999999" x2="281.125" y2="88.91406249999999" fill="rgb(0, 0, 0)" stroke="rgb(60, 60, 60)" stroke-width="1px" opacity="0.25"></line><line x1="0" y1="66.685546875" x2="281.125" y2="66.685546875" fill="rgb(0, 0, 0)" stroke="rgb(60, 60, 60)" stroke-width="1px" opacity="0.25"></line><line x1="0" y1="44.45703125" x2="281.125" y2="44.45703125" fill="rgb(0, 0, 0)" stroke="rgb(60, 60, 60)" stroke-width="1px" opacity="0.25"></line><line x1="0" y1="22.228515625" x2="281.125" y2="22.228515625" fill="rgb(0, 0, 0)" stroke="rgb(60, 60, 60)" stroke-width="1px" opacity="0.25"></line><line x1="0" y1="0" x2="281.125" y2="0" fill="rgb(0, 0, 0)" stroke="rgb(60, 60, 60)" stroke-width="1px" opacity="0.25"></line></g></g></g><g><g><line x1="0" y1="155.599609375" x2="281.125" y2="155.599609375" fill="rgb(0, 0, 0)" stroke="rgb(153, 153, 153)" stroke-width="1.5px"></line></g></g><g><g><line x1="31.23611111111111" y1="0" x2="31.23611111111111" y2="177.828125" fill="rgb(0, 0, 0)" stroke="rgb(153, 153, 153)" stroke-width="1.5px"></line></g></g><g><g><g><g><g><path style="fill: none;" stroke="rgb(255, 112, 67)" stroke-width="2px" d="M37.483333333333334,-6.184630882693455L39.04513888888889,12.15516219404526L40.60694444444444,27.202455922029912L42.168749999999996,42.053806820418686L43.730555555555554,53.08374919719063L45.29236111111111,65.15975123003591L46.854166666666664,72.84688031557016L48.41597222222222,77.67065916466527L49.97777777777778,81.44944492052309L51.53958333333333,83.91529844980687L53.101388888888884,86.64221476321109L54.66319444444444,88.24930634489283L56.225,90.14623803342693L57.78680555555555,91.61777676572092L59.34861111111111,92.44527716038283L60.91041666666667,93.95154874329455L62.47222222222222,94.91803353733849L64.03402777777778,96.34614792559296L65.59583333333333,97.12032017845195L67.1576388888889,98.01386797358282L68.71944444444445,98.21301049168687L70.28125,99.01869603281375L71.84305555555555,100.16052773187403L73.40486111111112,99.8502241927199L74.96666666666667,101.09605239290977L76.52847222222222,101.52566522819689L78.09027777777779,101.4705219421885L79.65208333333334,101.62552134564612L81.21388888888887,102.91421742230887L82.77569444444444,102.31752851244528L84.33749999999999,103.06441066839034L85.89930555555556,103.4579723548959L87.46111111111111,103.27066139719682L89.02291666666666,103.28948854986811L90.58472222222223,103.76254891534336L92.14652777777778,103.94575923704542L93.70833333333333,104.53399182728026L95.2701388888889,104.49167710606707L96.83194444444445,104.96314425190212L98.39375,104.45368825772312L99.95555555555556,104.80224562977673L101.51736111111111,105.8202864814084L103.07916666666667,106.07162102003349L104.64097222222223,105.5181080311886L106.20277777777777,105.61832850240171L107.76458333333333,106.49835546058603L109.32638888888889,124.51727211440448L110.88819444444444,130.1482320112118L112.45,132.49065739067737L114.01180555555555,134.00605106691364L115.5736111111111,134.80649156999425L117.13541666666667,136.43068293627584L118.69722222222222,136.15033921343274L120.25902777777777,137.29607281007338L121.82083333333334,138.62832241074648L123.38263888888889,138.45899727975484L124.94444444444444,138.9699189697567L126.50625000000001,139.5608643393789L128.06805555555556,139.9768520000507L129.62986111111113,140.33730552249472L131.19166666666666,140.80384064328973L132.75347222222223,140.76227450344595L134.3152777777778,140.67631516978145L135.87708333333333,141.41019486481673L137.4388888888889,141.47370669431984L139.00069444444446,140.87861266024993L140.5625,141.9065092811943L142.12430555555554,141.20192362877424L143.6861111111111,141.74909603405104L145.24791666666667,141.6431080083712L146.80972222222223,142.3016625311866L148.37152777777777,141.59934249671642L149.93333333333334,142.45078176174138L151.49513888888887,142.08043686268502L153.05694444444444,142.06969587934145L154.61875,141.56597762886668L156.18055555555557,141.56234899660922L157.7423611111111,142.6201524369535L159.30416666666667,141.50023827294353L160.8659722222222,142.41148289600096L162.42777777777775,141.94094402418705L163.98958333333334,142.30277712247334L165.55138888888888,142.5198864215199L167.11319444444445,141.5171045399038L168.67499999999998,142.33416951153777L170.23680555555555,141.9997639709036L171.79861111111111,142.11443272500765L173.36041666666668,142.60267670551548L174.92222222222222,142.2702568928944L176.48402777777778,142.62211249458778L178.04583333333332,141.93257879299927L179.60763888888889,142.59291036849027L181.16944444444445,142.7633972911426L182.73125000000002,142.2746829630487L184.29305555555555,142.22054247796768L185.85486111111112,142.67897900828393L187.41666666666666,147.12216468063707L188.97847222222225,149.2882925229933L190.5402777777778,149.9123737972477L192.10208333333333,149.94351859136805L193.6638888888889,150.28235103023326L195.22569444444443,150.70999138673506L196.7875,150.6523452387919L198.34930555555556,151.10582821407297L199.91111111111113,151.02757951693638L201.47291666666666,151.22675598618662L203.03472222222223,151.34842074659537L204.59652777777777,151.22822706450825L206.15833333333333,151.2645568611115L207.7201388888889,151.6586319551934L209.28194444444446,151.73000968561246L210.84375,151.58843092181633L212.40555555555554,151.78869921024307L213.9673611111111,151.77880700555397L215.52916666666667,151.7793688556194L217.09097222222223,152.00591491715022L218.65277777777777,151.71790030546254L220.21458333333334,151.7011992398111L221.77638888888887,151.79452348796622L223.33819444444444,152.02360387834779L224.9,151.96244502889022L226.46180555555557,152.22387361590881L228.0236111111111,151.93600122640055L229.58541666666667,152.15612658793907L231.1472222222222,152.2028125192228L232.70902777777775,152.16217589551525L234.27083333333334,152.35574918353086L235.83263888888888,152.355677347874L237.39444444444445,152.2723512982302L238.95624999999998,152.4399554787451L240.51805555555555,152.18818309454582L242.07986111111111,152.34579466606738L243.64166666666668,152.29888308387308L245.20347222222222,152.4212334918193L246.76527777777778,152.49605664251794L248.32708333333332,152.51316367278923L249.88888888888889,152.1355049929807L251.45069444444445,152.61649274406955L253.01250000000002,152.46914787494097L254.57430555555555,152.62104799419467L256.1361111111111,152.46585399270407L257.69791666666663,152.56343393422503L259.25972222222225,152.61631884795497L260.82152777777776,152.61772430119527L262.3833333333333,152.7605439379804" fill="none"></path></g></g></g></g></g></g><g transform="translate(48, 177)" clip-path="url(#clip_1)"><clipPath id="clip_1"><rect width="281" height="22"></rect></clipPath><g><g><line x1="0" y1="0" x2="0" y2="5" style="visibility: inherit;" fill="rgb(0, 0, 0)" stroke="rgb(204, 204, 204)" stroke-width="1px"></line><line x1="31.23611111111111" y1="0" x2="31.23611111111111" y2="5" style="visibility: inherit;" fill="rgb(0, 0, 0)" stroke="rgb(204, 204, 204)" stroke-width="1px"></line><line x1="62.47222222222222" y1="0" x2="62.47222222222222" y2="5" style="visibility: inherit;" fill="rgb(0, 0, 0)" stroke="rgb(204, 204, 204)" stroke-width="1px"></line><line x1="93.70833333333333" y1="0" x2="93.70833333333333" y2="5" style="visibility: inherit;" fill="rgb(0, 0, 0)" stroke="rgb(204, 204, 204)" stroke-width="1px"></line><line x1="124.94444444444444" y1="0" x2="124.94444444444444" y2="5" style="visibility: inherit;" fill="rgb(0, 0, 0)" stroke="rgb(204, 204, 204)" stroke-width="1px"></line><line x1="156.18055555555557" y1="0" x2="156.18055555555557" y2="5" style="visibility: inherit;" fill="rgb(0, 0, 0)" stroke="rgb(204, 204, 204)" stroke-width="1px"></line><line x1="187.41666666666666" y1="0" x2="187.41666666666666" y2="5" style="visibility: inherit;" fill="rgb(0, 0, 0)" stroke="rgb(204, 204, 204)" stroke-width="1px"></line><line x1="218.65277777777777" y1="0" x2="218.65277777777777" y2="5" style="visibility: inherit;" fill="rgb(0, 0, 0)" stroke="rgb(204, 204, 204)" stroke-width="1px"></line><line x1="249.88888888888889" y1="0" x2="249.88888888888889" y2="5" style="visibility: inherit;" fill="rgb(0, 0, 0)" stroke="rgb(204, 204, 204)" stroke-width="1px"></line><line x1="281.125" y1="0" x2="281.125" y2="5" style="visibility: inherit;" fill="rgb(0, 0, 0)" stroke="rgb(204, 204, 204)" stroke-width="1px"></line></g><g transform="translate(0, 8)"><text style="text-anchor: middle; visibility: hidden; font-family: &quot;Helvetica Neue&quot;, sans-serif; font-size: 12px; font-weight: 200;" x="0" y="0" dx="0em" dy="0.95em" fill="rgb(50, 49, 63)" stroke="none" stroke-width="1px">-20</text><text style="text-anchor: middle; visibility: inherit; font-family: &quot;Helvetica Neue&quot;, sans-serif; font-size: 12px; font-weight: 200;" x="31.23611111111111" y="0" dx="0em" dy="0.95em" fill="rgb(50, 49, 63)" stroke="none" stroke-width="1px">0</text><text style="text-anchor: middle; visibility: inherit; font-family: &quot;Helvetica Neue&quot;, sans-serif; font-size: 12px; font-weight: 200;" x="62.47222222222222" y="0" dx="0em" dy="0.95em" fill="rgb(50, 49, 63)" stroke="none" stroke-width="1px">20</text><text style="text-anchor: middle; visibility: inherit; font-family: &quot;Helvetica Neue&quot;, sans-serif; font-size: 12px; font-weight: 200;" x="93.70833333333333" y="0" dx="0em" dy="0.95em" fill="rgb(50, 49, 63)" stroke="none" stroke-width="1px">40</text><text style="text-anchor: middle; visibility: inherit; font-family: &quot;Helvetica Neue&quot;, sans-serif; font-size: 12px; font-weight: 200;" x="124.94444444444444" y="0" dx="0em" dy="0.95em" fill="rgb(50, 49, 63)" stroke="none" stroke-width="1px">60</text><text style="text-anchor: middle; visibility: inherit; font-family: &quot;Helvetica Neue&quot;, sans-serif; font-size: 12px; font-weight: 200;" x="156.18055555555557" y="0" dx="0em" dy="0.95em" fill="rgb(50, 49, 63)" stroke="none" stroke-width="1px">80</text><text style="text-anchor: middle; visibility: inherit; font-family: &quot;Helvetica Neue&quot;, sans-serif; font-size: 12px; font-weight: 200;" x="187.41666666666666" y="0" dx="0em" dy="0.95em" fill="rgb(50, 49, 63)" stroke="none" stroke-width="1px">100</text><text style="text-anchor: middle; visibility: inherit; font-family: &quot;Helvetica Neue&quot;, sans-serif; font-size: 12px; font-weight: 200;" x="218.65277777777777" y="0" dx="0em" dy="0.95em" fill="rgb(50, 49, 63)" stroke="none" stroke-width="1px">120</text><text style="text-anchor: middle; visibility: inherit; font-family: &quot;Helvetica Neue&quot;, sans-serif; font-size: 12px; font-weight: 200;" x="249.88888888888889" y="0" dx="0em" dy="0.95em" fill="rgb(50, 49, 63)" stroke="none" stroke-width="1px">140</text><text style="text-anchor: middle; visibility: hidden; font-family: &quot;Helvetica Neue&quot;, sans-serif; font-size: 12px; font-weight: 200;" x="281.125" y="0" dx="0em" dy="0.95em" fill="rgb(50, 49, 63)" stroke="none" stroke-width="1px">160</text></g><line x1="0" y1="0" x2="281.125" y2="0" fill="rgb(0, 0, 0)" stroke="rgb(204, 204, 204)" stroke-width="1px"></line></g></g></g></g></svg>