<svg viewBox="0 0 330 200" xmlns="http://www.w3.org/2000/svg"><g><g><g><g><g><line x1="39.15625" y1="177.828125" x2="34.15625" y2="177.828125" style="visibility: inherit;" fill="rgb(0, 0, 0)" stroke="rgb(204, 204, 204)" stroke-width="1px"></line><line x1="39.15625" y1="161.6619318181818" x2="34.15625" y2="161.6619318181818" style="visibility: inherit;" fill="rgb(0, 0, 0)" stroke="rgb(204, 204, 204)" stroke-width="1px"></line><line x1="39.15625" y1="145.49573863636363" x2="34.15625" y2="145.49573863636363" style="visibility: inherit;" fill="rgb(0, 0, 0)" stroke="rgb(204, 204, 204)" stroke-width="1px"></line><line x1="39.15625" y1="129.32954545454547" x2="34.15625" y2="129.32954545454547" style="visibility: inherit;" fill="rgb(0, 0, 0)" stroke="rgb(204, 204, 204)" stroke-width="1px"></line><line x1="39.15625" y1="113.16335227272727" x2="34.15625" y2="113.16335227272727" style="visibility: inherit;" fill="rgb(0, 0, 0)" stroke="rgb(204, 204, 204)" stroke-width="1px"></line><line x1="39.15625" y1="96.9971590909091" x2="34.15625" y2="96.9971590909091" style="visibility: inherit;" fill="rgb(0, 0, 0)" stroke="rgb(204, 204, 204)" stroke-width="1px"></line><line x1="39.15625" y1="80.83096590909092" x2="34.15625" y2="80.83096590909092" style="visibility: inherit;" fill="rgb(0, 0, 0)" stroke="rgb(204, 204, 204)" stroke-width="1px"></line><line x1="39.15625" y1="64.66477272727273" x2="34.15625" y2="64.66477272727273" style="visibility: inherit;" fill="rgb(0, 0, 0)" stroke="rgb(204, 204, 204)" stroke-width="1px"></line><line x1="39.15625" y1="48.49857954545453" x2="34.15625" y2="48.49857954545453" style="visibility: inherit;" fill="rgb(0, 0, 0)" stroke="rgb(204, 204, 204)" stroke-width="1px"></line><line x1="39.15625" y1="32.332386363636346" x2="34.15625" y2="32.332386363636346" style="visibility: inherit;" fill="rgb(0, 0, 0)" stroke="rgb(204, 204, 204)" stroke-width="1px"></line><line x1="39.15625" y1="16.166193181818187" x2="34.15625" y2="16.166193181818187" style="visibility: inherit;" fill="rgb(0, 0, 0)" stroke="rgb(204, 204, 204)" stroke-width="1px"></line><line x1="39.15625" y1="0" x2="34.15625" y2="0" style="visibility: inherit;" fill="rgb(0, 0, 0)" stroke="rgb(204, 204, 204)" stroke-width="1px"></line></g><g transform="translate(29.15625, 0)"><text style="text-anchor: end; visibility: hidden; font-family: &quot;Helvetica Neue&quot;, sans-serif; font-size: 12px; font-weight: 200;" x="0" y="177.828125" dx="0em" dy="0.3em" fill="rgb(50, 49, 63)" stroke="none" stroke-width="1px">55</text><text style="text-anchor: end; visibility: inherit; font-family: &quot;Helvetica Neue&quot;, sans-serif; font-size: 12px; font-weight: 200;" x="0" y="161.6619318181818" dx="0em" dy="0.3em" fill="rgb(50, 49, 63)" stroke="none" stroke-width="1px">60</text><text style="text-anchor: end; visibility: hidden; font-family: &quot;Helvetica Neue&quot;, sans-serif; font-size: 12px; font-weight: 200;" x="0" y="145.49573863636363" dx="0em" dy="0.3em" fill="rgb(50, 49, 63)" stroke="none" stroke-width="1px">65</text><text style="text-anchor: end; visibility: inherit; font-family: &quot;Helvetica Neue&quot;, sans-serif; font-size: 12px; font-weight: 200;" x="0" y="129.32954545454547" dx="0em" dy="0.3em" fill="rgb(50, 49, 63)" stroke="none" stroke-width="1px">70</text><text style="text-anchor: end; visibility: hidden; font-family: &quot;Helvetica Neue&quot;, sans-serif; font-size: 12px; font-weight: 200;" x="0" y="113.16335227272727" dx="0em" dy="0.3em" fill="rgb(50, 49, 63)" stroke="none" stroke-width="1px">75</text><text style="text-anchor: end; visibility: inherit; font-family: &quot;Helvetica Neue&quot;, sans-serif; font-size: 12px; font-weight: 200;" x="0" y="96.9971590909091" dx="0em" dy="0.3em" fill="rgb(50, 49, 63)" stroke="none" stroke-width="1px">80</text><text style="text-anchor: end; visibility: hidden; font-family: &quot;Helvetica Neue&quot;, sans-serif; font-size: 12px; font-weight: 200;" x="0" y="80.83096590909092" dx="0em" dy="0.3em" fill="rgb(50, 49, 63)" stroke="none" stroke-width="1px">85</text><text style="text-anchor: end; visibility: inherit; font-family: &quot;Helvetica Neue&quot;, sans-serif; font-size: 12px; font-weight: 200;" x="0" y="64.66477272727273" dx="0em" dy="0.3em" fill="rgb(50, 49, 63)" stroke="none" stroke-width="1px">90</text><text style="text-anchor: end; visibility: hidden; font-family: &quot;Helvetica Neue&quot;, sans-serif; font-size: 12px; font-weight: 200;" x="0" y="48.49857954545453" dx="0em" dy="0.3em" fill="rgb(50, 49, 63)" stroke="none" stroke-width="1px">95</text><text style="text-anchor: end; visibility: inherit; font-family: &quot;Helvetica Neue&quot;, sans-serif; font-size: 12px; font-weight: 200;" x="0" y="32.332386363636346" dx="0em" dy="0.3em" fill="rgb(50, 49, 63)" stroke="none" stroke-width="1px">100</text><text style="text-anchor: end; visibility: hidden; font-family: &quot;Helvetica Neue&quot;, sans-serif; font-size: 12px; font-weight: 200;" x="0" y="16.166193181818187" dx="0em" dy="0.3em" fill="rgb(50, 49, 63)" stroke="none" stroke-width="1px">105</text><text style="text-anchor: end; visibility: hidden; font-family: &quot;Helvetica Neue&quot;, sans-serif; font-size: 12px; font-weight: 200;" x="0" y="0" dx="0em" dy="0.3em" fill="rgb(50, 49, 63)" stroke="none" stroke-width="1px">110</text></g><line x1="39.15625" y1="0" x2="39.15625" y2="177.828125" fill="rgb(0, 0, 0)" stroke="rgb(204, 204, 204)" stroke-width="1px"></line></g></g><g transform="translate(39, 0)" clip-path="url(#clip_0)"><clipPath id="clip_0"><rect width="290" height="177"></rect></clipPath><g><g><g><line x1="0" y1="0" x2="0" y2="177.828125" fill="rgb(0, 0, 0)" stroke="rgb(60, 60, 60)" stroke-width="1px" opacity="0.25"></line><line x1="32.31597222222222" y1="0" x2="32.31597222222222" y2="177.828125" fill="rgb(0, 0, 0)" stroke="rgb(60, 60, 60)" stroke-width="1px" opacity="0.25"></line><line x1="64.63194444444444" y1="0" x2="64.63194444444444" y2="177.828125" fill="rgb(0, 0, 0)" stroke="rgb(60, 60, 60)" stroke-width="1px" opacity="0.25"></line><line x1="96.94791666666666" y1="0" x2="96.94791666666666" y2="177.828125" fill="rgb(0, 0, 0)" stroke="rgb(60, 60, 60)" stroke-width="1px" opacity="0.25"></line><line x1="129.26388888888889" y1="0" x2="129.26388888888889" y2="177.828125" fill="rgb(0, 0, 0)" stroke="rgb(60, 60, 60)" stroke-width="1px" opacity="0.25"></line><line x1="161.57986111111111" y1="0" x2="161.57986111111111" y2="177.828125" fill="rgb(0, 0, 0)" stroke="rgb(60, 60, 60)" stroke-width="1px" opacity="0.25"></line><line x1="193.89583333333331" y1="0" x2="193.89583333333331" y2="177.828125" fill="rgb(0, 0, 0)" stroke="rgb(60, 60, 60)" stroke-width="1px" opacity="0.25"></line><line x1="226.21180555555557" y1="0" x2="226.21180555555557" y2="177.828125" fill="rgb(0, 0, 0)" stroke="rgb(60, 60, 60)" stroke-width="1px" opacity="0.25"></line><line x1="258.52777777777777" y1="0" x2="258.52777777777777" y2="177.828125" fill="rgb(0, 0, 0)" stroke="rgb(60, 60, 60)" stroke-width="1px" opacity="0.25"></line><line x1="290.84375" y1="0" x2="290.84375" y2="177.828125" fill="rgb(0, 0, 0)" stroke="rgb(60, 60, 60)" stroke-width="1px" opacity="0.25"></line></g><g><line x1="0" y1="177.828125" x2="290.84375" y2="177.828125" fill="rgb(0, 0, 0)" stroke="rgb(60, 60, 60)" stroke-width="1px" opacity="0.25"></line><line x1="0" y1="161.6619318181818" x2="290.84375" y2="161.6619318181818" fill="rgb(0, 0, 0)" stroke="rgb(60, 60, 60)" stroke-width="1px" opacity="0.25"></line><line x1="0" y1="145.49573863636363" x2="290.84375" y2="145.49573863636363" fill="rgb(0, 0, 0)" stroke="rgb(60, 60, 60)" stroke-width="1px" opacity="0.25"></line><line x1="0" y1="129.32954545454547" x2="290.84375" y2="129.32954545454547" fill="rgb(0, 0, 0)" stroke="rgb(60, 60, 60)" stroke-width="1px" opacity="0.25"></line><line x1="0" y1="113.16335227272727" x2="290.84375" y2="113.16335227272727" fill="rgb(0, 0, 0)" stroke="rgb(60, 60, 60)" stroke-width="1px" opacity="0.25"></line><line x1="0" y1="96.9971590909091" x2="290.84375" y2="96.9971590909091" fill="rgb(0, 0, 0)" stroke="rgb(60, 60, 60)" stroke-width="1px" opacity="0.25"></line><line x1="0" y1="80.83096590909092" x2="290.84375" y2="80.83096590909092" fill="rgb(0, 0, 0)" stroke="rgb(60, 60, 60)" stroke-width="1px" opacity="0.25"></line><line x1="0" y1="64.66477272727273" x2="290.84375" y2="64.66477272727273" fill="rgb(0, 0, 0)" stroke="rgb(60, 60, 60)" stroke-width="1px" opacity="0.25"></line><line x1="0" y1="48.49857954545453" x2="290.84375" y2="48.49857954545453" fill="rgb(0, 0, 0)" stroke="rgb(60, 60, 60)" stroke-width="1px" opacity="0.25"></line><line x1="0" y1="32.332386363636346" x2="290.84375" y2="32.332386363636346" fill="rgb(0, 0, 0)" stroke="rgb(60, 60, 60)" stroke-width="1px" opacity="0.25"></line><line x1="0" y1="16.166193181818187" x2="290.84375" y2="16.166193181818187" fill="rgb(0, 0, 0)" stroke="rgb(60, 60, 60)" stroke-width="1px" opacity="0.25"></line><line x1="0" y1="0" x2="290.84375" y2="0" fill="rgb(0, 0, 0)" stroke="rgb(60, 60, 60)" stroke-width="1px" opacity="0.25"></line></g></g></g><g><g><line x1="0" y1="355.65625" x2="290.84375" y2="355.65625" fill="rgb(0, 0, 0)" stroke="rgb(153, 153, 153)" stroke-width="1.5px"></line></g></g><g><g><line x1="32.31597222222222" y1="0" x2="32.31597222222222" y2="177.828125" fill="rgb(0, 0, 0)" stroke="rgb(153, 153, 153)" stroke-width="1.5px"></line></g></g><g><g><g><g><g><path style="fill: none;" stroke="rgb(255, 112, 67)" stroke-width="2px" d="M38.77916666666667,193.53520382100885L40.39496527777778,171.23879048065706L42.01076388888888,155.0661343737082L43.6265625,141.58352284648203L45.24236111111111,130.21545955051076L46.858159722222226,121.82843280488794L48.47395833333333,114.02987759330057L50.089756944444446,107.68624523336237L51.705555555555556,103.3213780078021L53.321354166666666,101.0451703114943L54.937152777777776,98.31633584716103L56.55295138888889,96.20179994973269L58.16875,93.95144395394759L59.784548611111106,92.65816823352468L61.40034722222222,91.48773742589084L63.01614583333333,90.4142998305234L64.63194444444444,89.62537894682451L66.24774305555556,88.26096171465787L67.86354166666666,88.30622685822573L69.47934027777778,86.74133560874246L71.09513888888888,86.67019409699873L72.7109375,84.60092334313826L74.3267361111111,84.63972556157546L75.94253472222222,84.34225833199241L77.55833333333334,83.59216433438388L79.17413194444444,83.33996224836869L80.78993055555556,82.87438496242869L82.40572916666666,82.54457843953912L84.02152777777776,82.09841459664432L85.6373263888889,81.69100363688035L87.253125,81.85913836089048L88.86892361111111,81.20603757554835L90.48472222222222,80.79216369065371L92.10052083333333,81.06375455206091L93.71631944444445,79.7316766132008L95.33211805555555,79.6346834009344L96.94791666666666,79.9256630377336L98.56371527777779,79.30487687804482L100.17951388888889,78.6711648680947L101.7953125,78.84576251723549L103.41111111111111,78.19912465702403L105.02690972222221,78.57417165582831L106.64270833333333,77.9598484212702L108.25850694444445,78.02452700788325L109.87430555555555,78.18617413910953L111.49010416666667,77.8628552090038L113.10590277777779,58.39876947186211L114.72170138888889,52.216808910803366L116.3375,50.17987745024942L117.95329861111111,48.925379280610514L119.56909722222221,47.45101831826295L121.18489583333334,46.63624573404138L122.80069444444445,45.65980135094034L124.41649305555555,44.9743612722917L126.03229166666667,43.88153490153226L127.64809027777778,43.150805011662584L129.26388888888889,43.196070155230444L130.87968750000002,42.66581428267739L132.49548611111112,42.40071101405405L134.11128472222222,41.77992485436525L135.72708333333333,41.81223948001863L137.34288194444443,41.35958804433997L138.95868055555556,41.13326232650064L140.57447916666666,41.63766649853099L142.19027777777777,40.61595697186209L143.8060763888889,40.82286924665624L145.421875,41.07507133267143L147.0376736111111,41.23674313155087L148.6534722222222,40.37021781097761L150.26927083333334,41.333736343817264L151.88506944444444,40.93281297683714L153.50086805555557,40.57069182829423L155.11666666666667,41.172064544937825L156.73246527777778,40.68061089082198L158.34826388888888,40.59654352881691L159.9640625,40.97807812040503L161.57986111111111,40.738826552304346L163.19565972222222,40.350829035585576L164.81145833333332,40.95866467735985L166.42725694444442,40.48016154115851L168.04305555555553,40.512476166811865L169.65885416666669,40.38963125402276L171.2746527777778,40.991003970666355L172.8904513888889,40.00809666243467L174.50625,40.62241989699277L176.1220486111111,41.43719248121434L177.73784722222223,40.89401075839996L179.35364583333333,40.59008060368623L180.96944444444443,40.97807812040503L182.58524305555557,40.712950184128516L184.20104166666667,40.305563892017716L185.81684027777777,40.829356839440095L187.4326388888889,39.79469679485666L189.0484375,40.86813439022413L190.6642361111111,40.38316832889208L192.2800347222222,40.2473728981885L193.89583333333331,35.830752936276525L195.51163194444447,34.22059654322538L197.12743055555558,33.61276090145111L198.74322916666668,33.48342839587818L200.35902777777778,33.22476338473234L201.97482638888889,33.173035316033804L203.590625,32.97904889150098L205.20642361111112,33.01785110993819L206.82222222222222,32.90790737975729L208.43802083333333,33.04370281046087L210.05381944444443,32.81737709262154L211.66961805555556,32.86910516132008L213.28541666666666,32.81737709262154L214.9012152777778,32.82384001775222L216.5170138888889,32.72038388035514L218.1328125,32.79152539209886L219.7486111111111,32.77211194905368L221.3644097222222,32.68804458704861L222.98020833333334,32.68158166191793L224.59600694444444,32.75918609879233L226.21180555555557,32.629853593219394L227.82760416666667,32.63631651835007L229.44340277777778,32.629853593219394L231.05920138888888,32.61692774295807L232.675,32.63631651835007L234.29079861111111,32.59751429991289L235.90659722222222,32.603977225043565L237.52239583333332,32.57166259939021L239.13819444444442,32.59105137478221L240.75399305555553,32.694507512179285L242.36979166666669,32.584588449651534L243.9855902777778,32.59751429991289L245.6013888888889,32.57812552452086L247.2171875,32.52639745582232L248.8329861111111,32.51993453069167L250.44878472222223,32.513446937907844L252.06458333333333,32.47464471947063L253.68038194444443,32.532860380953L255.29618055555557,32.47464471947063L256.91197916666664,32.51993453069167L258.52777777777777,32.558712081475704L260.1435763888889,32.603977225043565L261.75937500000003,32.49405816251581L263.3751736111111,32.44879301894795L264.99097222222224,32.46171886920931L266.6067708333333,32.487595237385136L268.22256944444445,32.44879301894795L269.8383680555556,32.50052108764649" fill="none"></path></g></g></g></g></g></g><g transform="translate(39, 177)" clip-path="url(#clip_1)"><clipPath id="clip_1"><rect width="290" height="22"></rect></clipPath><g><g><line x1="0" y1="0" x2="0" y2="5" style="visibility: inherit;" fill="rgb(0, 0, 0)" stroke="rgb(204, 204, 204)" stroke-width="1px"></line><line x1="32.31597222222222" y1="0" x2="32.31597222222222" y2="5" style="visibility: inherit;" fill="rgb(0, 0, 0)" stroke="rgb(204, 204, 204)" stroke-width="1px"></line><line x1="64.63194444444444" y1="0" x2="64.63194444444444" y2="5" style="visibility: inherit;" fill="rgb(0, 0, 0)" stroke="rgb(204, 204, 204)" stroke-width="1px"></line><line x1="96.94791666666666" y1="0" x2="96.94791666666666" y2="5" style="visibility: inherit;" fill="rgb(0, 0, 0)" stroke="rgb(204, 204, 204)" stroke-width="1px"></line><line x1="129.26388888888889" y1="0" x2="129.26388888888889" y2="5" style="visibility: inherit;" fill="rgb(0, 0, 0)" stroke="rgb(204, 204, 204)" stroke-width="1px"></line><line x1="161.57986111111111" y1="0" x2="161.57986111111111" y2="5" style="visibility: inherit;" fill="rgb(0, 0, 0)" stroke="rgb(204, 204, 204)" stroke-width="1px"></line><line x1="193.89583333333331" y1="0" x2="193.89583333333331" y2="5" style="visibility: inherit;" fill="rgb(0, 0, 0)" stroke="rgb(204, 204, 204)" stroke-width="1px"></line><line x1="226.21180555555557" y1="0" x2="226.21180555555557" y2="5" style="visibility: inherit;" fill="rgb(0, 0, 0)" stroke="rgb(204, 204, 204)" stroke-width="1px"></line><line x1="258.52777777777777" y1="0" x2="258.52777777777777" y2="5" style="visibility: inherit;" fill="rgb(0, 0, 0)" stroke="rgb(204, 204, 204)" stroke-width="1px"></line><line x1="290.84375" y1="0" x2="290.84375" y2="5" style="visibility: inherit;" fill="rgb(0, 0, 0)" stroke="rgb(204, 204, 204)" stroke-width="1px"></line></g><g transform="translate(0, 8)"><text style="text-anchor: middle; visibility: hidden; font-family: &quot;Helvetica Neue&quot;, sans-serif; font-size: 12px; font-weight: 200;" x="0" y="0" dx="0em" dy="0.95em" fill="rgb(50, 49, 63)" stroke="none" stroke-width="1px">-20</text><text style="text-anchor: middle; visibility: inherit; font-family: &quot;Helvetica Neue&quot;, sans-serif; font-size: 12px; font-weight: 200;" x="32.31597222222222" y="0" dx="0em" dy="0.95em" fill="rgb(50, 49, 63)" stroke="none" stroke-width="1px">0</text><text style="text-anchor: middle; visibility: inherit; font-family: &quot;Helvetica Neue&quot;, sans-serif; font-size: 12px; font-weight: 200;" x="64.63194444444444" y="0" dx="0em" dy="0.95em" fill="rgb(50, 49, 63)" stroke="none" stroke-width="1px">20</text><text style="text-anchor: middle; visibility: inherit; font-family: &quot;Helvetica Neue&quot;, sans-serif; font-size: 12px; font-weight: 200;" x="96.94791666666666" y="0" dx="0em" dy="0.95em" fill="rgb(50, 49, 63)" stroke="none" stroke-width="1px">40</text><text style="text-anchor: middle; visibility: inherit; font-family: &quot;Helvetica Neue&quot;, sans-serif; font-size: 12px; font-weight: 200;" x="129.26388888888889" y="0" dx="0em" dy="0.95em" fill="rgb(50, 49, 63)" stroke="none" stroke-width="1px">60</text><text style="text-anchor: middle; visibility: inherit; font-family: &quot;Helvetica Neue&quot;, sans-serif; font-size: 12px; font-weight: 200;" x="161.57986111111111" y="0" dx="0em" dy="0.95em" fill="rgb(50, 49, 63)" stroke="none" stroke-width="1px">80</text><text style="text-anchor: middle; visibility: inherit; font-family: &quot;Helvetica Neue&quot;, sans-serif; font-size: 12px; font-weight: 200;" x="193.89583333333331" y="0" dx="0em" dy="0.95em" fill="rgb(50, 49, 63)" stroke="none" stroke-width="1px">100</text><text style="text-anchor: middle; visibility: inherit; font-family: &quot;Helvetica Neue&quot;, sans-serif; font-size: 12px; font-weight: 200;" x="226.21180555555557" y="0" dx="0em" dy="0.95em" fill="rgb(50, 49, 63)" stroke="none" stroke-width="1px">120</text><text style="text-anchor: middle; visibility: inherit; font-family: &quot;Helvetica Neue&quot;, sans-serif; font-size: 12px; font-weight: 200;" x="258.52777777777777" y="0" dx="0em" dy="0.95em" fill="rgb(50, 49, 63)" stroke="none" stroke-width="1px">140</text><text style="text-anchor: middle; visibility: hidden; font-family: &quot;Helvetica Neue&quot;, sans-serif; font-size: 12px; font-weight: 200;" x="290.84375" y="0" dx="0em" dy="0.95em" fill="rgb(50, 49, 63)" stroke="none" stroke-width="1px">160</text></g><line x1="0" y1="0" x2="290.84375" y2="0" fill="rgb(0, 0, 0)" stroke="rgb(204, 204, 204)" stroke-width="1px"></line></g></g></g></g></svg>